<mxfile host="app.diagrams.net" modified="2023-05-17T15:43:14.231Z" agent="Mozilla/5.0 (Windows NT 10.0; Win64; x64) AppleWebKit/537.36 (KHTML, like Gecko) Chrome/113.0.0.0 Safari/537.36" etag="V38OIab0qjz_nao_wSZk" version="21.3.2" type="device">
  <diagram name="Page-1" id="Y3G9Tcgp2r-DTJgwpcHX">
    <mxGraphModel dx="794" dy="462" grid="1" gridSize="10" guides="1" tooltips="1" connect="1" arrows="1" fold="1" page="1" pageScale="1" pageWidth="850" pageHeight="1100" math="0" shadow="0">
      <root>
        <mxCell id="0" />
        <mxCell id="1" parent="0" />
        <mxCell id="qYlo5iNn4XceBPxnYttS-3" value="" style="edgeStyle=orthogonalEdgeStyle;rounded=0;orthogonalLoop=1;jettySize=auto;html=1;" edge="1" parent="1" source="qYlo5iNn4XceBPxnYttS-1">
          <mxGeometry relative="1" as="geometry">
            <mxPoint x="400" y="160" as="targetPoint" />
          </mxGeometry>
        </mxCell>
        <mxCell id="qYlo5iNn4XceBPxnYttS-1" value="Start" style="ellipse;whiteSpace=wrap;html=1;" vertex="1" parent="1">
          <mxGeometry x="340" y="40" width="120" height="80" as="geometry" />
        </mxCell>
        <mxCell id="qYlo5iNn4XceBPxnYttS-6" value="" style="edgeStyle=orthogonalEdgeStyle;rounded=0;orthogonalLoop=1;jettySize=auto;html=1;" edge="1" parent="1" target="qYlo5iNn4XceBPxnYttS-4">
          <mxGeometry relative="1" as="geometry">
            <mxPoint x="400" y="220" as="sourcePoint" />
            <Array as="points">
              <mxPoint x="400" y="250" />
              <mxPoint x="400" y="250" />
            </Array>
          </mxGeometry>
        </mxCell>
        <mxCell id="qYlo5iNn4XceBPxnYttS-8" value="" style="edgeStyle=orthogonalEdgeStyle;rounded=0;orthogonalLoop=1;jettySize=auto;html=1;" edge="1" parent="1" source="qYlo5iNn4XceBPxnYttS-4" target="qYlo5iNn4XceBPxnYttS-7">
          <mxGeometry relative="1" as="geometry" />
        </mxCell>
        <mxCell id="qYlo5iNn4XceBPxnYttS-4" value="Ask how many rounds user&lt;br&gt;wants to play?" style="shape=parallelogram;perimeter=parallelogramPerimeter;whiteSpace=wrap;html=1;fixedSize=1;" vertex="1" parent="1">
          <mxGeometry x="340" y="260" width="120" height="60" as="geometry" />
        </mxCell>
        <mxCell id="qYlo5iNn4XceBPxnYttS-11" value="Yes" style="edgeStyle=orthogonalEdgeStyle;rounded=0;orthogonalLoop=1;jettySize=auto;html=1;" edge="1" parent="1" source="qYlo5iNn4XceBPxnYttS-7" target="qYlo5iNn4XceBPxnYttS-9">
          <mxGeometry relative="1" as="geometry" />
        </mxCell>
        <mxCell id="qYlo5iNn4XceBPxnYttS-44" value="No" style="edgeStyle=orthogonalEdgeStyle;rounded=0;orthogonalLoop=1;jettySize=auto;html=1;exitX=1;exitY=0.5;exitDx=0;exitDy=0;entryX=1;entryY=0.5;entryDx=0;entryDy=0;" edge="1" parent="1" source="qYlo5iNn4XceBPxnYttS-7" target="qYlo5iNn4XceBPxnYttS-41">
          <mxGeometry relative="1" as="geometry">
            <Array as="points">
              <mxPoint x="560" y="400" />
              <mxPoint x="560" y="1600" />
            </Array>
          </mxGeometry>
        </mxCell>
        <mxCell id="qYlo5iNn4XceBPxnYttS-7" value="&lt;font style=&quot;font-size: 10px;&quot;&gt;number of rounds in &lt;br&gt;bound?&lt;/font&gt;" style="rhombus;whiteSpace=wrap;html=1;" vertex="1" parent="1">
          <mxGeometry x="360" y="360" width="80" height="80" as="geometry" />
        </mxCell>
        <mxCell id="qYlo5iNn4XceBPxnYttS-13" value="" style="edgeStyle=orthogonalEdgeStyle;rounded=0;orthogonalLoop=1;jettySize=auto;html=1;" edge="1" parent="1" source="qYlo5iNn4XceBPxnYttS-9" target="qYlo5iNn4XceBPxnYttS-12">
          <mxGeometry relative="1" as="geometry" />
        </mxCell>
        <mxCell id="qYlo5iNn4XceBPxnYttS-9" value="&lt;font style=&quot;font-size: 10px;&quot;&gt;Prompt for user&#39;s &lt;br&gt;choice between&lt;br&gt;Rock, Paper, Scissors&lt;/font&gt;" style="shape=parallelogram;perimeter=parallelogramPerimeter;whiteSpace=wrap;html=1;fixedSize=1;" vertex="1" parent="1">
          <mxGeometry x="340" y="480" width="120" height="60" as="geometry" />
        </mxCell>
        <mxCell id="qYlo5iNn4XceBPxnYttS-15" value="" style="edgeStyle=orthogonalEdgeStyle;rounded=0;orthogonalLoop=1;jettySize=auto;html=1;" edge="1" parent="1" source="qYlo5iNn4XceBPxnYttS-12" target="qYlo5iNn4XceBPxnYttS-14">
          <mxGeometry relative="1" as="geometry" />
        </mxCell>
        <mxCell id="qYlo5iNn4XceBPxnYttS-12" value="Computer chooses between Rock, Paper, Scissors randomly" style="rounded=0;whiteSpace=wrap;html=1;" vertex="1" parent="1">
          <mxGeometry x="340" y="580" width="120" height="60" as="geometry" />
        </mxCell>
        <mxCell id="qYlo5iNn4XceBPxnYttS-17" value="" style="edgeStyle=orthogonalEdgeStyle;rounded=0;orthogonalLoop=1;jettySize=auto;html=1;" edge="1" parent="1" source="qYlo5iNn4XceBPxnYttS-14" target="qYlo5iNn4XceBPxnYttS-16">
          <mxGeometry relative="1" as="geometry" />
        </mxCell>
        <mxCell id="qYlo5iNn4XceBPxnYttS-14" value="Add to the counter" style="rounded=0;whiteSpace=wrap;html=1;" vertex="1" parent="1">
          <mxGeometry x="340" y="680" width="120" height="60" as="geometry" />
        </mxCell>
        <mxCell id="qYlo5iNn4XceBPxnYttS-19" value="" style="edgeStyle=orthogonalEdgeStyle;rounded=0;orthogonalLoop=1;jettySize=auto;html=1;" edge="1" parent="1" source="qYlo5iNn4XceBPxnYttS-16" target="qYlo5iNn4XceBPxnYttS-18">
          <mxGeometry relative="1" as="geometry" />
        </mxCell>
        <mxCell id="qYlo5iNn4XceBPxnYttS-16" value="Depending on who is the winner, add 1 to:&lt;br&gt;pcWin, userWin, Tie" style="rounded=0;whiteSpace=wrap;html=1;" vertex="1" parent="1">
          <mxGeometry x="340" y="780" width="120" height="60" as="geometry" />
        </mxCell>
        <mxCell id="qYlo5iNn4XceBPxnYttS-22" value="Yes" style="edgeStyle=orthogonalEdgeStyle;rounded=0;orthogonalLoop=1;jettySize=auto;html=1;" edge="1" parent="1" source="qYlo5iNn4XceBPxnYttS-18" target="qYlo5iNn4XceBPxnYttS-21">
          <mxGeometry relative="1" as="geometry" />
        </mxCell>
        <mxCell id="qYlo5iNn4XceBPxnYttS-23" value="No" style="edgeStyle=orthogonalEdgeStyle;rounded=0;orthogonalLoop=1;jettySize=auto;html=1;exitX=1;exitY=0.5;exitDx=0;exitDy=0;entryX=1;entryY=0.5;entryDx=0;entryDy=0;" edge="1" parent="1" source="qYlo5iNn4XceBPxnYttS-18" target="qYlo5iNn4XceBPxnYttS-21">
          <mxGeometry relative="1" as="geometry">
            <mxPoint x="520" y="1050" as="targetPoint" />
            <Array as="points">
              <mxPoint x="490" y="920" />
              <mxPoint x="490" y="1030" />
            </Array>
          </mxGeometry>
        </mxCell>
        <mxCell id="qYlo5iNn4XceBPxnYttS-18" value="&lt;font style=&quot;font-size: 8px;&quot;&gt;If it&#39;s a tie,&amp;nbsp;&lt;br&gt;choose the winner randomly?&lt;/font&gt;" style="rhombus;whiteSpace=wrap;html=1;" vertex="1" parent="1">
          <mxGeometry x="360" y="880" width="80" height="80" as="geometry" />
        </mxCell>
        <mxCell id="qYlo5iNn4XceBPxnYttS-26" value="" style="edgeStyle=orthogonalEdgeStyle;rounded=0;orthogonalLoop=1;jettySize=auto;html=1;" edge="1" parent="1" source="qYlo5iNn4XceBPxnYttS-21" target="qYlo5iNn4XceBPxnYttS-25">
          <mxGeometry relative="1" as="geometry" />
        </mxCell>
        <mxCell id="qYlo5iNn4XceBPxnYttS-21" value="Print&amp;nbsp;that round&#39;s&lt;br&gt;winner&#39;s name" style="shape=parallelogram;perimeter=parallelogramPerimeter;whiteSpace=wrap;html=1;fixedSize=1;" vertex="1" parent="1">
          <mxGeometry x="340" y="1000" width="120" height="60" as="geometry" />
        </mxCell>
        <mxCell id="qYlo5iNn4XceBPxnYttS-27" value="No" style="edgeStyle=orthogonalEdgeStyle;rounded=0;orthogonalLoop=1;jettySize=auto;html=1;exitX=0;exitY=0.5;exitDx=0;exitDy=0;entryX=0;entryY=0.5;entryDx=0;entryDy=0;" edge="1" parent="1" source="qYlo5iNn4XceBPxnYttS-25" target="qYlo5iNn4XceBPxnYttS-9">
          <mxGeometry relative="1" as="geometry">
            <Array as="points">
              <mxPoint x="320" y="1140" />
              <mxPoint x="320" y="510" />
            </Array>
          </mxGeometry>
        </mxCell>
        <mxCell id="qYlo5iNn4XceBPxnYttS-30" value="" style="edgeStyle=orthogonalEdgeStyle;rounded=0;orthogonalLoop=1;jettySize=auto;html=1;" edge="1" parent="1" source="qYlo5iNn4XceBPxnYttS-25" target="qYlo5iNn4XceBPxnYttS-28">
          <mxGeometry relative="1" as="geometry" />
        </mxCell>
        <mxCell id="qYlo5iNn4XceBPxnYttS-25" value="&lt;font style=&quot;font-size: 10px;&quot;&gt;Number of rounds &lt;br&gt;finished?&lt;/font&gt;" style="rhombus;whiteSpace=wrap;html=1;" vertex="1" parent="1">
          <mxGeometry x="360" y="1100" width="80" height="80" as="geometry" />
        </mxCell>
        <mxCell id="qYlo5iNn4XceBPxnYttS-31" value="" style="edgeStyle=orthogonalEdgeStyle;rounded=0;orthogonalLoop=1;jettySize=auto;html=1;" edge="1" parent="1" source="qYlo5iNn4XceBPxnYttS-28" target="qYlo5iNn4XceBPxnYttS-29">
          <mxGeometry relative="1" as="geometry" />
        </mxCell>
        <mxCell id="qYlo5iNn4XceBPxnYttS-28" value="Display the results" style="shape=parallelogram;perimeter=parallelogramPerimeter;whiteSpace=wrap;html=1;fixedSize=1;" vertex="1" parent="1">
          <mxGeometry x="340" y="1220" width="120" height="60" as="geometry" />
        </mxCell>
        <mxCell id="qYlo5iNn4XceBPxnYttS-34" value="Yes" style="edgeStyle=orthogonalEdgeStyle;rounded=0;orthogonalLoop=1;jettySize=auto;html=1;" edge="1" parent="1" source="qYlo5iNn4XceBPxnYttS-29" target="qYlo5iNn4XceBPxnYttS-32">
          <mxGeometry relative="1" as="geometry" />
        </mxCell>
        <mxCell id="qYlo5iNn4XceBPxnYttS-35" value="No" style="edgeStyle=orthogonalEdgeStyle;rounded=0;orthogonalLoop=1;jettySize=auto;html=1;" edge="1" parent="1" source="qYlo5iNn4XceBPxnYttS-29" target="qYlo5iNn4XceBPxnYttS-33">
          <mxGeometry relative="1" as="geometry" />
        </mxCell>
        <mxCell id="qYlo5iNn4XceBPxnYttS-29" value="&lt;font style=&quot;font-size: 10px;&quot;&gt;User won &lt;br&gt;more rounds than pc?&lt;/font&gt;" style="rhombus;whiteSpace=wrap;html=1;" vertex="1" parent="1">
          <mxGeometry x="360" y="1320" width="80" height="80" as="geometry" />
        </mxCell>
        <mxCell id="qYlo5iNn4XceBPxnYttS-39" style="edgeStyle=orthogonalEdgeStyle;rounded=0;orthogonalLoop=1;jettySize=auto;html=1;exitX=0;exitY=0.5;exitDx=0;exitDy=0;entryX=0.5;entryY=1;entryDx=0;entryDy=0;" edge="1" parent="1" source="qYlo5iNn4XceBPxnYttS-32" target="qYlo5iNn4XceBPxnYttS-37">
          <mxGeometry relative="1" as="geometry" />
        </mxCell>
        <mxCell id="qYlo5iNn4XceBPxnYttS-32" value="Display user is&lt;br&gt;the final winner" style="shape=parallelogram;perimeter=parallelogramPerimeter;whiteSpace=wrap;html=1;fixedSize=1;" vertex="1" parent="1">
          <mxGeometry x="340" y="1440" width="120" height="60" as="geometry" />
        </mxCell>
        <mxCell id="qYlo5iNn4XceBPxnYttS-38" value="" style="edgeStyle=orthogonalEdgeStyle;rounded=0;orthogonalLoop=1;jettySize=auto;html=1;" edge="1" parent="1" source="qYlo5iNn4XceBPxnYttS-33" target="qYlo5iNn4XceBPxnYttS-37">
          <mxGeometry relative="1" as="geometry" />
        </mxCell>
        <mxCell id="qYlo5iNn4XceBPxnYttS-33" value="Display pc is&lt;br&gt;the final winner" style="shape=parallelogram;perimeter=parallelogramPerimeter;whiteSpace=wrap;html=1;fixedSize=1;" vertex="1" parent="1">
          <mxGeometry x="200" y="1330" width="120" height="60" as="geometry" />
        </mxCell>
        <mxCell id="qYlo5iNn4XceBPxnYttS-36" value="Initialize the variables" style="rounded=0;whiteSpace=wrap;html=1;" vertex="1" parent="1">
          <mxGeometry x="340" y="160" width="120" height="60" as="geometry" />
        </mxCell>
        <mxCell id="qYlo5iNn4XceBPxnYttS-40" value="Yes" style="edgeStyle=orthogonalEdgeStyle;rounded=0;orthogonalLoop=1;jettySize=auto;html=1;exitX=0.5;exitY=0;exitDx=0;exitDy=0;entryX=0;entryY=0.5;entryDx=0;entryDy=0;" edge="1" parent="1" source="qYlo5iNn4XceBPxnYttS-37" target="qYlo5iNn4XceBPxnYttS-4">
          <mxGeometry relative="1" as="geometry">
            <Array as="points">
              <mxPoint x="120" y="290" />
            </Array>
          </mxGeometry>
        </mxCell>
        <mxCell id="qYlo5iNn4XceBPxnYttS-43" value="No" style="edgeStyle=orthogonalEdgeStyle;rounded=0;orthogonalLoop=1;jettySize=auto;html=1;exitX=0;exitY=0.5;exitDx=0;exitDy=0;entryX=0;entryY=0.5;entryDx=0;entryDy=0;" edge="1" parent="1" source="qYlo5iNn4XceBPxnYttS-37" target="qYlo5iNn4XceBPxnYttS-41">
          <mxGeometry relative="1" as="geometry" />
        </mxCell>
        <mxCell id="qYlo5iNn4XceBPxnYttS-37" value="&lt;font style=&quot;font-size: 10px;&quot;&gt;Ask if user &lt;br&gt;wants to play again&lt;/font&gt;" style="rhombus;whiteSpace=wrap;html=1;" vertex="1" parent="1">
          <mxGeometry x="80" y="1320" width="80" height="80" as="geometry" />
        </mxCell>
        <mxCell id="qYlo5iNn4XceBPxnYttS-41" value="End" style="ellipse;whiteSpace=wrap;html=1;" vertex="1" parent="1">
          <mxGeometry x="340" y="1560" width="120" height="80" as="geometry" />
        </mxCell>
      </root>
    </mxGraphModel>
  </diagram>
</mxfile>
